<svg version="1.1" id="Layer_1" xmlns="http://www.w3.org/2000/svg" xmlns:xlink="http://www.w3.org/1999/xlink" x="0px" y="0px"
	 width="100%" viewBox="0 0 512 512" enable-background="new 0 0 512 512" xml:space="preserve">
<path fill="#000000" opacity="1.000000" stroke="none" 
	d="
M290.000000,513.000000 
	C193.356796,513.000000 97.213585,513.000000 1.035192,513.000000 
	C1.035192,342.398438 1.035192,171.796860 1.035192,1.097646 
	C171.559891,1.097646 342.119843,1.097646 512.839905,1.097646 
	C512.839905,171.666550 512.839905,342.333252 512.839905,513.000000 
	C438.796844,513.000000 364.648407,513.000000 290.000000,513.000000 
M254.674698,470.848236 
	C283.463074,470.838440 312.251678,471.223480 340.655762,465.064178 
	C395.534180,453.164001 433.447937,421.320221 454.068481,369.076172 
	C465.351440,340.489899 471.289948,310.685699 474.164337,280.149414 
	C476.624420,254.014984 477.194183,227.984390 472.036774,202.100143 
	C462.621674,154.847031 438.575195,116.514130 399.292786,88.883553 
	C355.831787,58.313828 305.937073,46.372169 253.599411,43.214539 
	C251.960419,43.115658 249.877365,44.208019 248.602356,45.392181 
	C244.633072,49.078678 240.237762,51.099869 234.714966,51.039566 
	C212.882584,50.801182 191.814529,54.958744 171.460861,62.710091 
	C137.878723,75.499268 110.309082,96.648239 87.454979,124.081116 
	C55.971531,161.872238 39.120899,205.302170 38.007141,254.634079 
	C37.443924,279.580811 40.655045,304.078979 48.112766,327.862701 
	C62.899761,375.020538 85.573494,416.472351 130.961319,441.536255 
	C145.933075,449.803894 160.687195,458.109192 177.562469,462.099335 
	C202.632202,468.027100 228.132263,469.678528 254.674698,470.848236 
z"/>
<path fill="#FEDE00" opacity="1.000000" stroke="none" 
	d="
M254.196884,470.830322 
	C228.132263,469.678528 202.632202,468.027100 177.562469,462.099335 
	C160.687195,458.109192 145.933075,449.803894 130.961319,441.536255 
	C85.573494,416.472351 62.899761,375.020538 48.112766,327.862701 
	C40.655045,304.078979 37.443924,279.580811 38.007141,254.634079 
	C39.120899,205.302170 55.971531,161.872238 87.454979,124.081116 
	C110.309082,96.648239 137.878723,75.499268 171.460861,62.710091 
	C191.814529,54.958744 212.882584,50.801182 234.714966,51.039566 
	C240.237762,51.099869 244.633072,49.078678 248.602356,45.392181 
	C249.877365,44.208019 251.960419,43.115658 253.599411,43.214539 
	C305.937073,46.372169 355.831787,58.313828 399.292786,88.883553 
	C438.575195,116.514130 462.621674,154.847031 472.036774,202.100143 
	C477.194183,227.984390 476.624420,254.014984 474.164337,280.149414 
	C471.289948,310.685699 465.351440,340.489899 454.068481,369.076172 
	C433.447937,421.320221 395.534180,453.164001 340.655762,465.064178 
	C312.251678,471.223480 283.463074,470.838440 254.196884,470.830322 
M418.435852,326.946472 
	C426.299164,310.695801 430.479614,293.526093 431.336121,275.513367 
	C431.830353,265.119568 425.470123,256.901337 416.131744,255.980408 
	C405.664703,254.948196 397.810303,261.685699 396.580536,272.796631 
	C396.141479,276.763519 396.137695,280.809113 395.357117,284.702942 
	C386.499786,328.887512 359.352203,357.917786 318.380219,373.822662 
	C277.223206,389.799438 235.487183,386.761353 194.083923,373.333160 
	C168.525436,365.043854 150.305481,348.604736 139.403168,324.169403 
	C133.366653,310.639801 130.586777,296.379364 130.582825,281.477142 
	C130.579895,270.424255 122.958549,262.801605 113.124466,262.981201 
	C102.638115,263.172668 95.435677,270.669464 95.776688,281.946747 
	C96.037674,290.577240 96.437500,299.337616 98.130905,307.767944 
	C106.205215,347.964508 126.205162,380.613861 164.063309,398.263062 
	C216.808060,422.852356 271.878021,426.957275 327.338715,407.820953 
	C368.260620,393.701111 398.819550,366.769958 418.435852,326.946472 
M195.331787,235.984634 
	C209.025970,230.051544 215.045547,215.789032 209.338104,202.798599 
	C203.999786,190.648315 189.747345,184.666367 177.737839,189.535522 
	C164.591034,194.865799 158.396118,208.201981 163.004501,221.252869 
	C167.480896,233.929962 181.422516,240.550949 195.331787,235.984634 
M359.023773,222.347290 
	C363.562134,211.068588 360.069702,199.001282 350.339447,192.340744 
	C340.669739,185.721649 327.842041,186.476593 319.428711,194.159988 
	C311.785370,201.140228 309.115387,211.767990 312.844025,221.498291 
	C316.765900,231.732849 324.667358,236.892014 335.312134,237.765182 
	C344.931335,238.554199 354.157501,232.554794 359.023773,222.347290 
z"/>
<path fill="#020200" opacity="1.000000" stroke="none" 
	d="
M418.271851,327.284760 
	C398.819550,366.769958 368.260620,393.701111 327.338715,407.820953 
	C271.878021,426.957275 216.808060,422.852356 164.063309,398.263062 
	C126.205162,380.613861 106.205215,347.964508 98.130905,307.767944 
	C96.437500,299.337616 96.037674,290.577240 95.776688,281.946747 
	C95.435677,270.669464 102.638115,263.172668 113.124466,262.981201 
	C122.958549,262.801605 130.579895,270.424255 130.582825,281.477142 
	C130.586777,296.379364 133.366653,310.639801 139.403168,324.169403 
	C150.305481,348.604736 168.525436,365.043854 194.083923,373.333160 
	C235.487183,386.761353 277.223206,389.799438 318.380219,373.822662 
	C359.352203,357.917786 386.499786,328.887512 395.357117,284.702942 
	C396.137695,280.809113 396.141479,276.763519 396.580536,272.796631 
	C397.810303,261.685699 405.664703,254.948196 416.131744,255.980408 
	C425.470123,256.901337 431.830353,265.119568 431.336121,275.513367 
	C430.479614,293.526093 426.299164,310.695801 418.271851,327.284760 
z"/>
<path fill="#030200" opacity="1.000000" stroke="none" 
	d="
M194.961838,236.119293 
	C181.422516,240.550949 167.480896,233.929962 163.004501,221.252869 
	C158.396118,208.201981 164.591034,194.865799 177.737839,189.535522 
	C189.747345,184.666367 203.999786,190.648315 209.338104,202.798599 
	C215.045547,215.789032 209.025970,230.051544 194.961838,236.119293 
z"/>
<path fill="#030200" opacity="1.000000" stroke="none" 
	d="
M358.901520,222.715759 
	C354.157501,232.554794 344.931335,238.554199 335.312134,237.765182 
	C324.667358,236.892014 316.765900,231.732849 312.844025,221.498291 
	C309.115387,211.767990 311.785370,201.140228 319.428711,194.159988 
	C327.842041,186.476593 340.669739,185.721649 350.339447,192.340744 
	C360.069702,199.001282 363.562134,211.068588 358.901520,222.715759 
z"/>
</svg>